<svg version="1.1" id="Layer_1" xmlns="http://www.w3.org/2000/svg" xmlns:xlink="http://www.w3.org/1999/xlink" x="0px" y="0px"
	 width="100%" viewBox="0 0 477 509" enable-background="new 0 0 477 509" xml:space="preserve">
<path fill="#160508" opacity="1.000000" stroke="none" 
	d="
M1.000000,88.000000 
	C1.000000,85.299370 1.000000,82.598747 1.392513,79.256607 
	C1.794710,68.417847 1.804395,58.220585 1.890273,47.558769 
	C1.935312,37.036758 1.904158,26.979311 1.918881,16.547674 
	C4.552366,7.331175 11.070824,2.158167 19.996845,2.158051 
	C96.131119,2.157059 172.265381,2.209192 248.399658,2.204964 
	C257.934143,2.204435 266.741821,8.454530 266.433990,20.655228 
	C265.963470,39.306335 266.127808,57.976471 266.205963,76.637764 
	C266.351746,111.459999 266.589905,146.282013 266.876129,181.103409 
	C266.961792,191.528061 260.411438,198.372528 250.300140,198.183228 
	C226.313492,197.734146 202.290436,197.388580 178.324707,198.223770 
	C157.860336,198.936935 157.216141,190.580353 157.837616,176.445663 
	C158.214050,167.884460 164.200806,161.995010 172.722778,161.986832 
	C190.719009,161.969559 208.715256,161.985870 226.711487,161.970657 
	C228.144287,161.969452 229.576965,161.831146 230.825653,161.766144 
	C230.825653,147.253662 230.825653,133.191849 230.825653,118.976227 
	C228.937500,118.976227 227.450562,118.976730 225.963623,118.976151 
	C182.306091,118.959152 138.647888,118.808510 94.991585,119.031601 
	C85.659912,119.079292 78.505348,112.135559 78.813225,103.069427 
	C79.434975,84.760704 79.016182,66.416626 79.025772,48.087135 
	C79.027664,44.476871 79.026047,40.866608 79.026047,37.246475 
	C64.755043,37.246475 51.019859,37.246475 37.338776,37.246475 
	C37.338776,78.904449 37.338776,120.294006 37.338776,161.968994 
	C57.967445,161.968994 78.271477,161.969543 98.575508,161.968796 
	C110.390900,161.968353 115.993355,167.657547 115.994789,179.683472 
	C115.998016,206.677536 115.986496,233.671616 115.996536,260.665680 
	C116.000420,271.102051 110.936287,276.251190 100.568459,276.233246 
	C81.239601,276.199829 61.910786,276.143738 42.581955,276.098114 
	C40.825104,276.093964 39.068237,276.097534 37.363770,276.097534 
	C37.363770,290.241760 37.363770,303.638947 37.363770,317.597900 
	C39.343105,317.597900 40.971836,317.593781 42.600536,317.598602 
	C61.596195,317.654755 80.591896,317.699677 99.587479,317.774261 
	C110.257141,317.816162 115.991737,323.613770 115.986618,334.375732 
	C115.974091,360.703003 115.928406,387.030304 115.902687,413.357574 
	C115.892021,424.279877 110.306709,429.955536 99.467003,429.964691 
	C80.137718,429.980957 60.808411,429.962280 41.479126,429.977051 
	C40.048458,429.978149 38.617908,430.130371 37.325523,430.204407 
	C37.325523,444.984985 37.325523,459.388336 37.325523,473.717194 
	C77.715446,473.717194 117.793159,473.717194 158.244141,473.717194 
	C158.244141,470.470306 158.247787,467.498718 158.243591,464.527130 
	C158.170135,412.540039 158.098618,360.552917 158.020081,308.565826 
	C157.990677,289.097565 164.795029,272.417206 178.570251,258.671539 
	C190.239258,247.027557 203.617432,240.228592 220.903702,240.734589 
	C247.375107,241.509460 273.887177,240.818771 300.380188,241.006226 
	C304.748047,241.037125 306.033173,239.918152 305.995300,235.453278 
	C305.815979,214.301010 306.012299,193.145584 306.309723,171.803162 
	C306.389435,170.746323 306.234161,169.877594 305.983521,168.577942 
	C305.953247,166.094543 306.018341,164.042084 306.361328,161.681519 
	C306.744354,142.493317 306.857178,123.613205 306.917755,104.732933 
	C306.919586,104.159332 306.376373,103.583992 305.991882,102.558914 
	C305.958252,98.736000 306.019989,95.363632 306.361115,91.684090 
	C306.456604,84.587891 306.272736,77.798866 305.993225,70.549164 
	C305.959137,59.389694 306.020691,48.690914 306.361206,37.684441 
	C306.509460,29.928572 306.378754,22.480394 306.289856,14.691174 
	C314.529480,-0.755219 328.860077,-2.670515 339.795837,10.639331 
	C344.259766,16.072388 347.441193,22.922432 349.805847,29.622026 
	C352.554657,37.410133 353.767181,45.740467 355.613525,53.693562 
	C379.240509,53.693562 402.833160,53.693562 426.502045,53.693562 
	C427.034424,50.830635 427.496246,48.252274 427.994995,45.681080 
	C430.450958,33.020100 433.729279,20.721018 442.361877,10.554262 
	C448.262329,3.605210 456.257812,0.521073 463.391846,2.756210 
	C472.699982,5.672513 476.938263,11.865716 476.940247,22.728983 
	C476.960510,132.541840 476.968750,242.354706 476.979279,352.167572 
	C476.983673,398.325623 477.003296,444.483673 476.975586,490.641724 
	C476.969055,501.493408 471.132996,508.235870 460.643250,509.136353 
	C456.117462,508.975922 452.053345,508.911041 447.885284,508.462646 
	C445.754150,507.719818 443.727112,507.047089 441.699768,507.046143 
	C334.114380,506.994598 226.528961,506.999725 118.943535,506.998932 
	C87.467300,506.998718 55.990963,506.967682 24.515099,507.076294 
	C22.677511,507.082611 20.843822,508.218323 18.657829,508.899963 
	C17.839748,509.055176 17.372158,509.138824 16.525719,509.152527 
	C8.876143,508.076599 4.673141,503.564148 2.413331,496.852539 
	C2.661943,496.395660 2.537770,496.153809 2.078937,495.648315 
	C1.944582,494.535583 1.889417,493.789337 1.916074,492.578003 
	C1.941348,476.070343 1.884800,460.027802 1.898638,443.653473 
	C2.030380,442.875641 2.091734,442.429626 2.298872,441.892700 
	C2.347721,441.540039 2.250786,441.278290 2.077935,440.557434 
	C2.053775,436.058777 2.105531,432.019196 2.356621,427.828613 
	C2.423456,427.125244 2.290957,426.572876 2.083616,425.555847 
	C1.943789,415.403198 1.878803,405.715149 1.903026,395.764801 
	C2.047557,395.326202 2.102880,395.149933 2.421113,394.656006 
	C2.789965,393.355713 2.988253,392.373077 2.988574,391.390411 
	C3.003093,347.016357 3.008078,302.642334 2.963868,258.268311 
	C2.962454,256.849854 2.435213,255.431885 2.099444,253.646637 
	C5.702961,243.482544 9.297717,240.988342 19.761475,240.987320 
	C24.426634,240.986862 29.091791,240.985748 33.756950,240.985672 
	C48.707733,240.985458 63.658516,240.985596 78.789032,240.985596 
	C78.789032,226.530304 78.789032,212.475174 78.789032,198.043472 
	C76.913345,198.043472 75.279419,198.043808 73.645493,198.043427 
	C54.984859,198.038910 36.324226,198.038086 17.663597,198.028046 
	C8.794621,198.023270 4.622559,194.846802 1.938389,185.586578 
	C2.063783,182.755661 2.111712,180.366562 2.405838,177.701324 
	C2.485556,175.290726 2.319077,173.156265 2.074682,170.606873 
	C2.046414,168.789581 2.096061,167.387238 2.291940,165.893402 
	C2.340154,165.539566 2.242134,165.277222 2.062171,164.561371 
	C2.035217,160.728516 2.090207,157.349182 2.411031,153.654724 
	C2.771155,134.148087 2.872749,114.956604 2.924798,95.764977 
	C2.926376,95.183441 2.410825,94.600494 2.052706,93.699158 
	C1.933501,92.942177 1.897962,92.504257 2.145488,91.853546 
	C1.952368,90.427170 1.476184,89.213585 1.000000,88.000000 
M443.210297,436.499969 
	C443.210297,320.908264 443.210297,205.316544 443.210297,89.614563 
	C407.531189,89.614563 372.462830,89.614563 337.014343,89.614563 
	C337.014343,91.918732 337.014313,93.887344 337.014343,95.855965 
	C337.015778,153.847778 336.960114,211.839752 337.119171,269.831146 
	C337.132996,274.864319 335.703857,276.376251 330.626373,276.345551 
	C292.632996,276.115570 254.637711,276.117493 216.643692,276.244873 
	C214.081100,276.253448 211.068573,277.284668 209.039993,278.846466 
	C197.961029,287.376251 192.362854,298.779877 192.348434,312.828247 
	C192.301895,358.154663 192.261993,403.481079 192.222397,448.807495 
	C192.215149,457.087311 192.221344,465.367157 192.221344,473.822266 
	C205.799225,473.822266 218.402008,473.822266 231.543365,473.822266 
	C231.543365,471.839783 231.554016,470.041016 231.541748,468.242371 
	C231.386993,445.581207 231.221069,422.920105 231.076904,400.258850 
	C231.037064,393.997284 231.749115,393.280212 237.795059,393.274261 
	C268.290619,393.244202 298.786163,393.216187 329.281708,393.191589 
	C336.308411,393.185913 336.613617,393.450470 336.646179,400.420441 
	C336.753662,423.416199 336.823883,446.412109 336.922119,469.407928 
	C336.928284,470.847534 337.052246,472.286591 337.121307,473.724121 
	C349.382843,473.724121 361.290222,473.724121 373.645782,473.724121 
	C373.645782,471.832458 373.651459,470.197418 373.644928,468.562408 
	C373.551788,445.234314 373.511566,421.905731 373.304535,398.578644 
	C373.272980,395.024841 374.151489,393.464600 378.045380,393.575165 
	C385.869781,393.797394 393.707886,393.618134 401.538635,393.496155 
	C404.290405,393.453278 405.610229,393.908752 405.595520,397.334045 
	C405.493042,421.162048 405.672089,444.991272 405.779419,468.820007 
	C405.786682,470.431641 405.945190,472.042572 406.035370,473.690918 
	C418.623230,473.690918 430.838562,473.690918 443.212067,473.690918 
	C443.212067,461.424194 443.212067,449.462097 443.210297,436.499969 
M228.064056,83.230141 
	C229.082901,82.547600 230.982635,81.875420 230.990829,81.180977 
	C231.162537,66.596252 231.120575,52.009014 231.120575,37.374443 
	C192.430725,37.374443 154.273987,37.374443 116.166809,37.374443 
	C116.166809,52.827564 116.166809,67.925949 116.166809,83.231033 
	C153.297836,83.231033 190.217178,83.231033 228.064056,83.230141 
M269.821960,473.987671 
	C281.409882,473.987671 292.997833,473.987671 304.820007,473.987671 
	C304.820007,459.144836 304.820007,444.779266 304.820007,430.252991 
	C291.955963,430.252991 279.265686,430.252991 266.261078,430.252991 
	C266.261078,444.120026 266.210907,457.707855 266.373810,471.293121 
	C266.384705,472.200958 268.010864,473.089447 269.821960,473.987671 
M68.477821,352.908691 
	C58.097500,352.908691 47.717182,352.908691 37.382874,352.908691 
	C37.382874,366.620544 37.382874,379.686035 37.382874,393.048187 
	C51.331047,393.048187 64.989723,393.048187 78.697884,393.048187 
	C78.697884,379.524994 78.697884,366.336853 78.697884,352.910400 
	C75.412086,352.910400 72.439812,352.910400 68.477821,352.908691 
z"/>
<path fill="#FEFEFE" opacity="1.000000" stroke="none" 
	d="
M306.082275,37.992130 
	C306.020691,48.690914 305.959137,59.389694 305.912720,71.011139 
	C305.979126,78.619614 306.030426,85.305443 306.081726,91.991264 
	C306.019989,95.363632 305.958252,98.736000 305.909302,103.020737 
	C305.975891,123.285271 306.029663,142.637436 306.083435,161.989609 
	C306.018341,164.042084 305.953247,166.094543 305.897827,168.945786 
	C305.963257,170.493454 306.019012,171.242371 306.074768,171.991272 
	C306.012299,193.145584 305.815979,214.301010 305.995300,235.453278 
	C306.033173,239.918152 304.748047,241.037125 300.380188,241.006226 
	C273.887177,240.818771 247.375107,241.509460 220.903702,240.734589 
	C203.617432,240.228592 190.239258,247.027557 178.570251,258.671539 
	C164.795029,272.417206 157.990677,289.097565 158.020081,308.565826 
	C158.098618,360.552917 158.170135,412.540039 158.243591,464.527130 
	C158.247787,467.498718 158.244141,470.470306 158.244141,473.717194 
	C117.793159,473.717194 77.715446,473.717194 37.325523,473.717194 
	C37.325523,459.388336 37.325523,444.984985 37.325523,430.204407 
	C38.617908,430.130371 40.048458,429.978149 41.479126,429.977051 
	C60.808411,429.962280 80.137718,429.980957 99.467003,429.964691 
	C110.306709,429.955536 115.892021,424.279877 115.902687,413.357574 
	C115.928406,387.030304 115.974091,360.703003 115.986618,334.375732 
	C115.991737,323.613770 110.257141,317.816162 99.587479,317.774261 
	C80.591896,317.699677 61.596195,317.654755 42.600536,317.598602 
	C40.971836,317.593781 39.343105,317.597900 37.363770,317.597900 
	C37.363770,303.638947 37.363770,290.241760 37.363770,276.097534 
	C39.068237,276.097534 40.825104,276.093964 42.581955,276.098114 
	C61.910786,276.143738 81.239601,276.199829 100.568459,276.233246 
	C110.936287,276.251190 116.000420,271.102051 115.996536,260.665680 
	C115.986496,233.671616 115.998016,206.677536 115.994789,179.683472 
	C115.993355,167.657547 110.390900,161.968353 98.575508,161.968796 
	C78.271477,161.969543 57.967445,161.968994 37.338776,161.968994 
	C37.338776,120.294006 37.338776,78.904449 37.338776,37.246475 
	C51.019859,37.246475 64.755043,37.246475 79.026047,37.246475 
	C79.026047,40.866608 79.027664,44.476871 79.025772,48.087135 
	C79.016182,66.416626 79.434975,84.760704 78.813225,103.069427 
	C78.505348,112.135559 85.659912,119.079292 94.991585,119.031601 
	C138.647888,118.808510 182.306091,118.959152 225.963623,118.976151 
	C227.450562,118.976730 228.937500,118.976227 230.825653,118.976227 
	C230.825653,133.191849 230.825653,147.253662 230.825653,161.766144 
	C229.576965,161.831146 228.144287,161.969452 226.711487,161.970657 
	C208.715256,161.985870 190.719009,161.969559 172.722778,161.986832 
	C164.200806,161.995010 158.214050,167.884460 157.837616,176.445663 
	C157.216141,190.580353 157.860336,198.936935 178.324707,198.223770 
	C202.290436,197.388580 226.313492,197.734146 250.300140,198.183228 
	C260.411438,198.372528 266.961792,191.528061 266.876129,181.103409 
	C266.589905,146.282013 266.351746,111.459999 266.205963,76.637764 
	C266.127808,57.976471 265.963470,39.306335 266.433990,20.655228 
	C266.741821,8.454530 257.934143,2.204435 248.399658,2.204964 
	C172.265381,2.209192 96.131119,2.157059 19.996845,2.158051 
	C11.070824,2.158167 4.552366,7.331175 1.700303,16.563557 
	C1.435846,16.953627 1.000000,17.000000 1.000000,17.000000 
	C1.000000,11.668976 1.000000,6.337952 1.000000,1.005196 
	C159.928848,1.003464 318.857697,1.003464 477.893250,1.003464 
	C477.893250,170.666626 477.893250,340.333313 477.893250,510.000000 
	C472.603058,510.000000 467.271973,510.000000 461.541382,509.814087 
	C461.141815,509.628174 461.104980,509.231964 461.104980,509.231964 
	C471.132996,508.235870 476.969055,501.493408 476.975586,490.641724 
	C477.003296,444.483673 476.983673,398.325623 476.979279,352.167572 
	C476.968750,242.354706 476.960510,132.541840 476.940247,22.728983 
	C476.938263,11.865716 472.699982,5.672513 463.391846,2.756210 
	C456.257812,0.521073 448.262329,3.605210 442.361877,10.554262 
	C433.729279,20.721018 430.450958,33.020100 427.994995,45.681080 
	C427.496246,48.252274 427.034424,50.830635 426.502045,53.693562 
	C402.833160,53.693562 379.240509,53.693562 355.613525,53.693562 
	C353.767181,45.740467 352.554657,37.410133 349.805847,29.622026 
	C347.441193,22.922432 344.259766,16.072388 339.795837,10.639331 
	C328.860077,-2.670515 314.529480,-0.755219 306.166656,15.143532 
	C306.028564,23.288668 306.055420,30.640398 306.082275,37.992130 
z"/>
<path fill="#FFFFFF" opacity="1.000000" stroke="none" 
	d="
M1.860924,186.028397 
	C4.622559,194.846802 8.794621,198.023270 17.663597,198.028046 
	C36.324226,198.038086 54.984859,198.038910 73.645493,198.043427 
	C75.279419,198.043808 76.913345,198.043472 78.789032,198.043472 
	C78.789032,212.475174 78.789032,226.530304 78.789032,240.985596 
	C63.658516,240.985596 48.707733,240.985458 33.756950,240.985672 
	C29.091791,240.985748 24.426634,240.986862 19.761475,240.987320 
	C9.297717,240.988342 5.702961,243.482544 2.013231,253.960632 
	C1.929174,255.071808 1.877676,255.501923 1.615253,255.895782 
	C1.404327,255.859497 1.000000,256.000000 1.000000,256.000000 
	C1.000000,232.979111 1.000000,209.958206 1.214973,186.483551 
	C1.429947,186.029800 1.860924,186.028397 1.860924,186.028397 
z"/>
<path fill="#C3C2C3" opacity="1.000000" stroke="none" 
	d="
M364.000000,510.000000 
	C318.645782,510.000000 273.291534,510.000000 227.473434,509.794189 
	C227.009552,509.588409 227.015610,509.176788 227.478058,509.102478 
	C237.077194,509.015717 246.213913,508.981598 255.350586,508.994629 
	C291.561859,509.046204 327.773132,509.112518 363.987671,509.380005 
	C363.990936,509.586700 364.000000,510.000000 364.000000,510.000000 
z"/>
<path fill="#ACABAB" opacity="1.000000" stroke="none" 
	d="
M16.904568,509.222473 
	C17.372158,509.138824 17.839748,509.055176 19.122169,508.964172 
	C49.632198,509.026123 79.327400,509.095398 109.014816,509.373444 
	C109.007042,509.582214 109.000000,510.000000 109.000000,510.000000 
	C78.645775,510.000000 48.291542,510.000000 17.411936,509.809631 
	C16.886557,509.619293 16.904568,509.222473 16.904568,509.222473 
z"/>
<path fill="#B4B2B5" opacity="1.000000" stroke="none" 
	d="
M1.000000,256.468658 
	C1.000000,256.000000 1.404327,255.859497 1.707881,256.360840 
	C1.950247,286.912842 1.889059,316.963531 1.620759,347.019043 
	C1.413647,347.023895 1.000000,347.000000 1.000000,347.000000 
	C1.000000,316.979095 1.000000,286.958221 1.000000,256.468658 
z"/>
<path fill="#FCFCFC" opacity="1.000000" stroke="none" 
	d="
M16.525719,509.152527 
	C16.904568,509.222473 16.886557,509.619293 16.943279,509.809631 
	C11.739022,510.000000 6.478045,510.000000 1.000000,510.000000 
	C1.000000,504.648285 1.000000,499.294617 1.207239,493.506836 
	C1.414479,493.072754 1.834248,493.043091 1.834250,493.043091 
	C1.889417,493.789337 1.944582,494.535583 2.019889,495.899384 
	C2.125360,496.666229 2.210689,496.815491 2.296017,496.964722 
	C4.673141,503.564148 8.876143,508.076599 16.525719,509.152527 
z"/>
<path fill="#C2C1C1" opacity="1.000000" stroke="none" 
	d="
M109.468658,510.000000 
	C109.000000,510.000000 109.007042,509.582214 109.478333,509.310913 
	C136.628510,509.084808 163.307388,509.129974 189.989136,509.381409 
	C189.991989,509.587616 190.000000,510.000000 190.000000,510.000000 
	C163.312439,510.000000 136.624878,510.000000 109.468658,510.000000 
z"/>
<path fill="#B4B2B5" opacity="1.000000" stroke="none" 
	d="
M364.468658,510.000000 
	C364.000000,510.000000 363.990936,509.586700 364.451294,509.299622 
	C381.604675,509.065796 398.297699,509.119110 414.992859,509.379333 
	C414.994995,509.586212 415.000000,510.000000 415.000000,510.000000 
	C398.312439,510.000000 381.624878,510.000000 364.468658,510.000000 
z"/>
<path fill="#CCCACB" opacity="1.000000" stroke="none" 
	d="
M1.916072,492.578003 
	C1.834248,493.043091 1.414479,493.072754 1.207239,493.036377 
	C1.000000,476.979095 1.000000,460.958221 1.206915,444.456635 
	C1.413829,443.975952 1.828251,443.985260 1.828251,443.985260 
	C1.884800,460.027802 1.941348,476.070343 1.916072,492.578003 
z"/>
<path fill="#C2C1C1" opacity="1.000000" stroke="none" 
	d="
M1.000000,347.468658 
	C1.000000,347.000000 1.413647,347.023895 1.688807,347.482452 
	C2.028712,363.618561 2.093458,379.296143 2.158204,394.973694 
	C2.102880,395.149933 2.047557,395.326202 1.699000,395.775146 
	C1.405767,396.047852 1.000000,396.000000 1.000000,396.000000 
	C1.000000,379.979095 1.000000,363.958221 1.000000,347.468658 
z"/>
<path fill="#D8D7D9" opacity="1.000000" stroke="none" 
	d="
M1.938389,185.586578 
	C1.860924,186.028397 1.429947,186.029800 1.214973,186.014893 
	C1.000000,169.979111 1.000000,153.958206 1.207999,137.459015 
	C1.415998,136.980698 1.832323,136.990677 1.912564,137.452759 
	C2.043602,143.266510 2.094399,148.618195 2.145196,153.969864 
	C2.090207,157.349182 2.035217,160.728516 1.998102,164.803986 
	C2.059220,165.661728 2.102463,165.823318 2.145707,165.984909 
	C2.096061,167.387238 2.046414,168.789581 2.006730,171.037659 
	C2.064342,173.914764 2.111992,175.946121 2.159641,177.977463 
	C2.111712,180.366562 2.063783,182.755661 1.938389,185.586578 
z"/>
<path fill="#DBDADB" opacity="1.000000" stroke="none" 
	d="
M1.000000,396.468658 
	C1.000000,396.000000 1.405767,396.047852 1.609792,396.037476 
	C1.878803,405.715149 1.943789,415.403198 2.016639,425.880066 
	C2.068765,427.105835 2.113026,427.542725 2.157287,427.979614 
	C2.105531,432.019196 2.053775,436.058777 2.015696,440.799194 
	C2.029374,441.500000 2.153088,441.983582 2.153089,441.983582 
	C2.091734,442.429626 2.030380,442.875641 1.898638,443.653473 
	C1.828251,443.985260 1.413829,443.975952 1.206915,443.987976 
	C1.000000,428.312439 1.000000,412.624878 1.000000,396.468658 
z"/>
<path fill="#ACABAB" opacity="1.000000" stroke="none" 
	d="
M415.468658,510.000000 
	C415.000000,510.000000 414.994995,509.586212 415.456787,509.303711 
	C426.608795,508.962891 437.299011,508.904541 447.989258,508.846191 
	C452.053345,508.911041 456.117462,508.975922 460.643250,509.136353 
	C461.104980,509.231964 461.141815,509.628174 461.070923,509.814087 
	C445.979095,510.000000 430.958221,510.000000 415.468658,510.000000 
z"/>
<path fill="#E3E2E4" opacity="1.000000" stroke="none" 
	d="
M1.832323,136.990677 
	C1.832323,136.990677 1.415998,136.980698 1.207999,136.990356 
	C1.000000,122.312439 1.000000,107.624878 1.214447,92.500305 
	C1.428894,92.063293 1.862423,92.066330 1.862423,92.066330 
	C1.897962,92.504257 1.933501,92.942177 1.978361,94.161575 
	C1.935896,108.958923 1.884110,122.974800 1.832323,136.990677 
z"/>
<path fill="#B4B2B5" opacity="1.000000" stroke="none" 
	d="
M190.468658,510.000000 
	C190.000000,510.000000 189.991989,509.587616 190.452789,509.302368 
	C202.947601,509.070312 214.981613,509.123535 227.015610,509.176788 
	C227.015610,509.176788 227.009552,509.588409 227.004776,509.794189 
	C214.979111,510.000000 202.958206,510.000000 190.468658,510.000000 
z"/>
<path fill="#9C979C" opacity="1.000000" stroke="none" 
	d="
M1.000000,17.468658 
	C1.000000,17.000000 1.435846,16.953627 1.654425,16.937744 
	C1.904158,26.979311 1.935312,37.036758 1.686496,47.561932 
	C1.406525,48.029655 1.000000,48.000000 1.000000,48.000000 
	C1.000000,37.979103 1.000000,27.958210 1.000000,17.468658 
z"/>
<path fill="#ACABAB" opacity="1.000000" stroke="none" 
	d="
M1.000000,48.468658 
	C1.000000,48.000000 1.406525,48.029655 1.610302,48.026489 
	C1.804395,58.220585 1.794710,68.417847 1.392513,78.807556 
	C1.000000,68.979103 1.000000,58.958210 1.000000,48.468658 
z"/>
<path fill="#060006" opacity="1.000000" stroke="none" 
	d="
M2.145488,91.853546 
	C1.862423,92.066330 1.428894,92.063293 1.214447,92.031647 
	C1.000000,90.933327 1.000000,89.866661 1.000000,88.399994 
	C1.476184,89.213585 1.952368,90.427170 2.145488,91.853546 
z"/>
<path fill="#FEFEFE" opacity="1.000000" stroke="none" 
	d="
M443.211182,437.000000 
	C443.212067,449.462097 443.212067,461.424194 443.212067,473.690918 
	C430.838562,473.690918 418.623230,473.690918 406.035370,473.690918 
	C405.945190,472.042572 405.786682,470.431641 405.779419,468.820007 
	C405.672089,444.991272 405.493042,421.162048 405.595520,397.334045 
	C405.610229,393.908752 404.290405,393.453278 401.538635,393.496155 
	C393.707886,393.618134 385.869781,393.797394 378.045380,393.575165 
	C374.151489,393.464600 373.272980,395.024841 373.304535,398.578644 
	C373.511566,421.905731 373.551788,445.234314 373.644928,468.562408 
	C373.651459,470.197418 373.645782,471.832458 373.645782,473.724121 
	C361.290222,473.724121 349.382843,473.724121 337.121307,473.724121 
	C337.052246,472.286591 336.928284,470.847534 336.922119,469.407928 
	C336.823883,446.412109 336.753662,423.416199 336.646179,400.420441 
	C336.613617,393.450470 336.308411,393.185913 329.281708,393.191589 
	C298.786163,393.216187 268.290619,393.244202 237.795059,393.274261 
	C231.749115,393.280212 231.037064,393.997284 231.076904,400.258850 
	C231.221069,422.920105 231.386993,445.581207 231.541748,468.242371 
	C231.554016,470.041016 231.543365,471.839783 231.543365,473.822266 
	C218.402008,473.822266 205.799225,473.822266 192.221344,473.822266 
	C192.221344,465.367157 192.215149,457.087311 192.222397,448.807495 
	C192.261993,403.481079 192.301895,358.154663 192.348434,312.828247 
	C192.362854,298.779877 197.961029,287.376251 209.039993,278.846466 
	C211.068573,277.284668 214.081100,276.253448 216.643692,276.244873 
	C254.637711,276.117493 292.632996,276.115570 330.626373,276.345551 
	C335.703857,276.376251 337.132996,274.864319 337.119171,269.831146 
	C336.960114,211.839752 337.015778,153.847778 337.014343,95.855965 
	C337.014313,93.887344 337.014343,91.918732 337.014343,89.614563 
	C372.462830,89.614563 407.531189,89.614563 443.210297,89.614563 
	C443.210297,205.316544 443.210297,320.908264 443.211182,437.000000 
M400.803589,174.991074 
	C405.813904,176.900421 410.695770,176.109268 415.232513,173.737839 
	C418.685822,171.932755 422.017212,169.461578 420.155121,164.725632 
	C418.266937,159.923386 414.618103,162.001755 411.365173,162.885910 
	C411.204620,162.929550 411.042786,162.968491 410.881592,163.009903 
	C403.499573,164.906479 397.125061,160.062363 397.069183,152.505280 
	C397.053162,150.341660 397.148254,148.174072 397.049072,146.014877 
	C396.856659,141.826645 396.431366,138.055649 402.285645,136.750000 
	C405.812531,135.963440 407.760834,132.332016 406.837494,128.394073 
	C405.912994,124.451172 402.798004,123.743332 399.131744,123.862206 
	C393.645111,124.040115 388.148224,123.906784 382.655701,123.895332 
	C379.498230,123.888756 375.913818,123.354126 375.082672,127.631104 
	C374.276550,131.779282 375.514587,135.917328 379.754608,136.897110 
	C384.970093,138.102325 385.084930,141.176041 384.712952,145.175018 
	C384.559418,146.825592 384.674072,148.501511 384.674072,150.165909 
	C384.674225,161.073654 377.521698,165.769806 367.233368,161.890533 
	C365.764191,161.336578 363.030609,161.736053 362.092316,162.780930 
	C360.916565,164.090286 359.961029,167.280884 360.727234,168.320572 
	C362.669830,170.956543 365.287109,173.816833 368.241516,174.849060 
	C376.778595,177.831757 384.100586,174.618362 390.254822,168.736862 
	C393.600739,170.810638 396.814880,172.802704 400.803589,174.991074 
M356.522400,124.988281 
	C350.793091,125.951111 348.291168,128.882538 348.962646,133.845856 
	C349.547943,138.172226 353.096985,140.566330 358.053345,140.080505 
	C362.537811,139.640976 364.565765,136.495316 364.696777,132.726135 
	C364.854340,128.194214 361.897217,125.562614 356.522400,124.988281 
M432.956177,136.226593 
	C434.758972,131.371765 433.043243,127.021835 428.660217,125.334763 
	C424.556824,123.755348 420.019196,125.681122 418.430115,129.853851 
	C417.099304,133.348450 417.980896,136.385483 420.995544,138.645462 
	C424.369446,141.174774 428.509460,140.508911 432.956177,136.226593 
z"/>
<path fill="#FFFFFF" opacity="1.000000" stroke="none" 
	d="
M227.600281,83.230591 
	C190.217178,83.231033 153.297836,83.231033 116.166809,83.231033 
	C116.166809,67.925949 116.166809,52.827564 116.166809,37.374443 
	C154.273987,37.374443 192.430725,37.374443 231.120575,37.374443 
	C231.120575,52.009014 231.162537,66.596252 230.990829,81.180977 
	C230.982635,81.875420 229.082901,82.547600 227.600281,83.230591 
z"/>
<path fill="#FEFDFD" opacity="1.000000" stroke="none" 
	d="
M269.353851,473.987305 
	C268.010864,473.089447 266.384705,472.200958 266.373810,471.293121 
	C266.210907,457.707855 266.261078,444.120026 266.261078,430.252991 
	C279.265686,430.252991 291.955963,430.252991 304.820007,430.252991 
	C304.820007,444.779266 304.820007,459.144836 304.820007,473.987671 
	C292.997833,473.987671 281.409882,473.987671 269.353851,473.987305 
z"/>
<path fill="#FEFEFE" opacity="1.000000" stroke="none" 
	d="
M68.972679,352.909546 
	C72.439812,352.910400 75.412086,352.910400 78.697884,352.910400 
	C78.697884,366.336853 78.697884,379.524994 78.697884,393.048187 
	C64.989723,393.048187 51.331047,393.048187 37.382874,393.048187 
	C37.382874,379.686035 37.382874,366.620544 37.382874,352.908691 
	C47.717182,352.908691 58.097500,352.908691 68.972679,352.909546 
z"/>
<path fill="#070102" opacity="1.000000" stroke="none" 
	d="
M227.478058,509.102478 
	C214.981613,509.123535 202.947601,509.070312 190.449936,509.096130 
	C163.307388,509.129974 136.628510,509.084808 109.486115,509.102142 
	C79.327400,509.095398 49.632198,509.026123 19.472658,508.892639 
	C20.843822,508.218323 22.677511,507.082611 24.515099,507.076294 
	C55.990963,506.967682 87.467300,506.998718 118.943535,506.998932 
	C226.528961,506.999725 334.114380,506.994598 441.699768,507.046143 
	C443.727112,507.047089 445.754150,507.719818 447.885284,508.462646 
	C437.299011,508.904541 426.608795,508.962891 415.454651,509.096832 
	C398.297699,509.119110 381.604675,509.065796 364.448029,509.092926 
	C327.773132,509.112518 291.561859,509.046204 255.350586,508.994629 
	C246.213913,508.981598 237.077194,509.015717 227.478058,509.102478 
z"/>
<path fill="#080004" opacity="1.000000" stroke="none" 
	d="
M2.421113,394.656006 
	C2.093458,379.296143 2.028712,363.618561 1.895919,347.477600 
	C1.889059,316.963531 1.950247,286.912842 1.918807,256.397095 
	C1.877676,255.501923 1.929174,255.071808 2.066886,254.327682 
	C2.435213,255.431885 2.962454,256.849854 2.963868,258.268311 
	C3.008078,302.642334 3.003093,347.016357 2.988574,391.390411 
	C2.988253,392.373077 2.789965,393.355713 2.421113,394.656006 
z"/>
<path fill="#060006" opacity="1.000000" stroke="none" 
	d="
M1.912564,137.452759 
	C1.884110,122.974800 1.935896,108.958923 2.062027,94.480629 
	C2.410825,94.600494 2.926376,95.183441 2.924798,95.764977 
	C2.872749,114.956604 2.771155,134.148087 2.411031,153.654724 
	C2.094399,148.618195 2.043602,143.266510 1.912564,137.452759 
z"/>
<path fill="#040000" opacity="1.000000" stroke="none" 
	d="
M306.361328,161.681519 
	C306.029663,142.637436 305.975891,123.285271 306.004700,103.471283 
	C306.376373,103.583992 306.919586,104.159332 306.917755,104.732933 
	C306.857178,123.613205 306.744354,142.493317 306.361328,161.681519 
z"/>
<path fill="#040000" opacity="1.000000" stroke="none" 
	d="
M306.361206,37.684441 
	C306.055420,30.640398 306.028564,23.288668 306.124878,15.484577 
	C306.378754,22.480394 306.509460,29.928572 306.361206,37.684441 
z"/>
<path fill="#040000" opacity="1.000000" stroke="none" 
	d="
M306.361115,91.684090 
	C306.030426,85.305443 305.979126,78.619614 306.008362,71.471817 
	C306.272736,77.798866 306.456604,84.587891 306.361115,91.684090 
z"/>
<path fill="#060006" opacity="1.000000" stroke="none" 
	d="
M2.405838,177.701324 
	C2.111992,175.946121 2.064342,173.914764 2.084645,171.452621 
	C2.319077,173.156265 2.485556,175.290726 2.405838,177.701324 
z"/>
<path fill="#040000" opacity="1.000000" stroke="none" 
	d="
M306.309692,171.803162 
	C306.019012,171.242371 305.963257,170.493454 305.993195,169.376709 
	C306.234161,169.877594 306.389435,170.746323 306.309692,171.803162 
z"/>
<path fill="#080004" opacity="1.000000" stroke="none" 
	d="
M2.356620,427.828613 
	C2.113026,427.542725 2.068765,427.105835 2.091481,426.344727 
	C2.290957,426.572876 2.423456,427.125244 2.356620,427.828613 
z"/>
<path fill="#080004" opacity="1.000000" stroke="none" 
	d="
M2.298872,441.892700 
	C2.153088,441.983582 2.029374,441.500000 2.091613,441.258270 
	C2.250786,441.278290 2.347721,441.540039 2.298872,441.892700 
z"/>
<path fill="#080004" opacity="1.000000" stroke="none" 
	d="
M2.413331,496.852539 
	C2.210689,496.815491 2.125360,496.666229 2.099078,496.265869 
	C2.537770,496.153809 2.661943,496.395660 2.413331,496.852539 
z"/>
<path fill="#060006" opacity="1.000000" stroke="none" 
	d="
M2.291941,165.893402 
	C2.102463,165.823318 2.059220,165.661728 2.080045,165.257523 
	C2.242134,165.277222 2.340154,165.539566 2.291941,165.893402 
z"/>
<path fill="#17080A" opacity="1.000000" stroke="none" 
	d="
M400.416290,174.892914 
	C396.814880,172.802704 393.600739,170.810638 390.254822,168.736862 
	C384.100586,174.618362 376.778595,177.831757 368.241516,174.849060 
	C365.287109,173.816833 362.669830,170.956543 360.727234,168.320572 
	C359.961029,167.280884 360.916565,164.090286 362.092316,162.780930 
	C363.030609,161.736053 365.764191,161.336578 367.233368,161.890533 
	C377.521698,165.769806 384.674225,161.073654 384.674072,150.165909 
	C384.674072,148.501511 384.559418,146.825592 384.712952,145.175018 
	C385.084930,141.176041 384.970093,138.102325 379.754608,136.897110 
	C375.514587,135.917328 374.276550,131.779282 375.082672,127.631104 
	C375.913818,123.354126 379.498230,123.888756 382.655701,123.895332 
	C388.148224,123.906784 393.645111,124.040115 399.131744,123.862206 
	C402.798004,123.743332 405.912994,124.451172 406.837494,128.394073 
	C407.760834,132.332016 405.812531,135.963440 402.285645,136.750000 
	C396.431366,138.055649 396.856659,141.826645 397.049072,146.014877 
	C397.148254,148.174072 397.053162,150.341660 397.069183,152.505280 
	C397.125061,160.062363 403.499573,164.906479 410.881592,163.009903 
	C411.042786,162.968491 411.204620,162.929550 411.365173,162.885910 
	C414.618103,162.001755 418.266937,159.923386 420.155121,164.725632 
	C422.017212,169.461578 418.685822,171.932755 415.232513,173.737839 
	C410.695770,176.109268 405.813904,176.900421 400.416290,174.892914 
z"/>
<path fill="#180B0D" opacity="1.000000" stroke="none" 
	d="
M356.923309,124.988220 
	C361.897217,125.562614 364.854340,128.194214 364.696777,132.726135 
	C364.565765,136.495316 362.537811,139.640976 358.053345,140.080505 
	C353.096985,140.566330 349.547943,138.172226 348.962646,133.845856 
	C348.291168,128.882538 350.793091,125.951111 356.923309,124.988220 
z"/>
<path fill="#180C0F" opacity="1.000000" stroke="none" 
	d="
M432.751282,136.565460 
	C428.509460,140.508911 424.369446,141.174774 420.995544,138.645462 
	C417.980896,136.385483 417.099304,133.348450 418.430115,129.853851 
	C420.019196,125.681122 424.556824,123.755348 428.660217,125.334763 
	C433.043243,127.021835 434.758972,131.371765 432.751282,136.565460 
z"/>
</svg>